grf
version=1
nRows=41
nColumns=28
inDegrees=yes
endheader
time	ground_force_1_vx	ground_force_1_vy	ground_force_1_vz	ground_force_1_px	ground_force_1_py	ground_force_1_pz	ground_moment_1_mx	ground_moment_1_my	ground_moment_1_mz	ground_force_2_vx	ground_force_2_vy	ground_force_2_vz	ground_force_2_px	ground_force_2_py	ground_force_2_pz	ground_moment_2_mx	ground_moment_2_my	ground_moment_2_mz	ground_force_3_vx	ground_force_3_vy	ground_force_3_vz	ground_force_3_px	ground_force_3_py	ground_force_3_pz	ground_moment_3_mx	ground_moment_3_my	ground_moment_3_mz
0.318000	-61.783024	402.842260	-26.964967	-0.304566	-0.000226	-0.253445	0.000132	-0.153090	-0.000283	0.000000	0.000000	0.000000	0.000000	0.000000	0.000000	0.000000	0.000000	0.000000	0.000000	0.000000	0.000000	0.000000	0.000000	0.000000	0.000000	0.000000	0.000000
0.318667	-61.558416	403.179718	-26.760081	-0.304485	-0.000226	-0.253477	0.000134	-0.155022	-0.000286	0.000000	0.000000	0.000000	0.000000	0.000000	0.000000	0.000000	0.000000	0.000000	0.000000	0.000000	0.000000	0.000000	0.000000	0.000000	0.000000	0.000000	0.000000
0.319333	-61.330100	403.481858	-26.559238	-0.304405	-0.000226	-0.253508	0.000135	-0.156172	-0.000288	0.000000	0.000000	0.000000	0.000000	0.000000	0.000000	0.000000	0.000000	0.000000	0.000000	0.000000	0.000000	0.000000	0.000000	0.000000	0.000000	0.000000	0.000000
0.320000	-61.097562	403.748460	-26.362437	-0.304325	-0.000226	-0.253538	0.000135	-0.156597	-0.000289	0.000000	0.000000	0.000000	0.000000	0.000000	0.000000	0.000000	0.000000	0.000000	0.000000	0.000000	0.000000	0.000000	0.000000	0.000000	0.000000	0.000000	0.000000
0.320667	-60.860268	403.979346	-26.169583	-0.304246	-0.000226	-0.253567	0.000135	-0.156366	-0.000289	0.000000	0.000000	0.000000	0.000000	0.000000	0.000000	0.000000	0.000000	0.000000	0.000000	0.000000	0.000000	0.000000	0.000000	0.000000	0.000000	0.000000	0.000000
0.321333	-60.617689	404.174397	-25.980499	-0.304168	-0.000226	-0.253596	0.000134	-0.155547	-0.000287	0.000000	0.000000	0.000000	0.000000	0.000000	0.000000	0.000000	0.000000	0.000000	0.000000	0.000000	0.000000	0.000000	0.000000	0.000000	0.000000	0.000000	0.000000
0.322000	-60.369331	404.333543	-25.794926	-0.304091	-0.000226	-0.253624	0.000133	-0.154207	-0.000285	0.000000	0.000000	0.000000	0.000000	0.000000	0.000000	0.000000	0.000000	0.000000	0.000000	0.000000	0.000000	0.000000	0.000000	0.000000	0.000000	0.000000	0.000000
0.322667	-60.114745	404.456755	-25.612539	-0.304014	-0.000225	-0.253651	0.000131	-0.152406	-0.000281	0.000000	0.000000	0.000000	0.000000	0.000000	0.000000	0.000000	0.000000	0.000000	0.000000	0.000000	0.000000	0.000000	0.000000	0.000000	0.000000	0.000000	0.000000
0.323333	-59.853514	404.544032	-25.432955	-0.303938	-0.000225	-0.253678	0.000130	-0.150202	-0.000277	0.000000	0.000000	0.000000	0.000000	0.000000	0.000000	0.000000	0.000000	0.000000	0.000000	0.000000	0.000000	0.000000	0.000000	0.000000	0.000000	0.000000	0.000000
0.324000	-59.585238	404.595401	-25.255753	-0.303863	-0.000225	-0.253704	0.000127	-0.147650	-0.000273	0.000000	0.000000	0.000000	0.000000	0.000000	0.000000	0.000000	0.000000	0.000000	0.000000	0.000000	0.000000	0.000000	0.000000	0.000000	0.000000	0.000000	0.000000
0.324667	-59.309534	404.610965	-25.080473	-0.303788	-0.000225	-0.253731	0.000125	-0.144810	-0.000267	0.000000	0.000000	0.000000	0.000000	0.000000	0.000000	0.000000	0.000000	0.000000	0.000000	0.000000	0.000000	0.000000	0.000000	0.000000	0.000000	0.000000	0.000000
0.325333	-59.026032	404.590937	-24.906627	-0.303714	-0.000225	-0.253757	0.000122	-0.141741	-0.000262	0.000000	0.000000	0.000000	0.000000	0.000000	0.000000	0.000000	0.000000	0.000000	0.000000	0.000000	0.000000	0.000000	0.000000	0.000000	0.000000	0.000000	0.000000
0.326000	-58.734366	404.535623	-24.733712	-0.303640	-0.000225	-0.253783	0.000119	-0.138508	-0.000256	0.000000	0.000000	0.000000	0.000000	0.000000	0.000000	0.000000	0.000000	0.000000	0.000000	0.000000	0.000000	0.000000	0.000000	0.000000	0.000000	0.000000	0.000000
0.326667	-58.434179	404.445375	-24.561226	-0.303567	-0.000225	-0.253810	0.000117	-0.135187	-0.000250	0.000000	0.000000	0.000000	0.000000	0.000000	0.000000	0.000000	0.000000	0.000000	0.000000	0.000000	0.000000	0.000000	0.000000	0.000000	0.000000	0.000000	0.000000
0.327333	-58.125124	404.320574	-24.388685	-0.303495	-0.000225	-0.253837	0.000114	-0.131858	-0.000244	0.000000	0.000000	0.000000	0.000000	0.000000	0.000000	0.000000	0.000000	0.000000	0.000000	0.000000	0.000000	0.000000	0.000000	0.000000	0.000000	0.000000	0.000000
0.328000	-57.806879	404.161637	-24.215628	-0.303423	-0.000225	-0.253865	0.000111	-0.128603	-0.000237	0.000000	0.000000	0.000000	0.000000	0.000000	0.000000	0.000000	0.000000	0.000000	0.000000	0.000000	0.000000	0.000000	0.000000	0.000000	0.000000	0.000000	0.000000
0.328667	-57.479150	403.969033	-24.041622	-0.303352	-0.000224	-0.253894	0.000108	-0.125501	-0.000232	0.000000	0.000000	0.000000	0.000000	0.000000	0.000000	0.000000	0.000000	0.000000	0.000000	0.000000	0.000000	0.000000	0.000000	0.000000	0.000000	0.000000	0.000000
0.329333	-57.141671	403.743283	-23.866270	-0.303282	-0.000224	-0.253923	0.000106	-0.122625	-0.000226	0.000000	0.000000	0.000000	0.000000	0.000000	0.000000	0.000000	0.000000	0.000000	0.000000	0.000000	0.000000	0.000000	0.000000	0.000000	0.000000	0.000000	0.000000
0.330000	-56.794217	403.484994	-23.689207	-0.303212	-0.000224	-0.253953	0.000104	-0.120037	-0.000222	0.000000	0.000000	0.000000	0.000000	0.000000	0.000000	0.000000	0.000000	0.000000	0.000000	0.000000	0.000000	0.000000	0.000000	0.000000	0.000000	0.000000	0.000000
0.330667	-56.436602	403.194871	-23.510106	-0.303144	-0.000224	-0.253984	0.000102	-0.117786	-0.000218	0.000000	0.000000	0.000000	0.000000	0.000000	0.000000	0.000000	0.000000	0.000000	0.000000	0.000000	0.000000	0.000000	0.000000	0.000000	0.000000	0.000000	0.000000
0.331333	-56.068686	402.873696	-23.328685	-0.303077	-0.000224	-0.254016	0.000100	-0.115912	-0.000214	0.000000	0.000000	0.000000	0.000000	0.000000	0.000000	0.000000	0.000000	0.000000	0.000000	0.000000	0.000000	0.000000	0.000000	0.000000	0.000000	0.000000	0.000000
0.332000	-55.690372	402.522246	-23.144722	-0.303011	-0.000224	-0.254049	0.000099	-0.114447	-0.000211	0.000000	0.000000	0.000000	0.000000	0.000000	0.000000	0.000000	0.000000	0.000000	0.000000	0.000000	0.000000	0.000000	0.000000	0.000000	0.000000	0.000000	0.000000
0.332667	-55.301604	402.141145	-22.958079	-0.302946	-0.000224	-0.254081	0.000098	-0.113414	-0.000209	0.000000	0.000000	0.000000	0.000000	0.000000	0.000000	0.000000	0.000000	0.000000	0.000000	0.000000	0.000000	0.000000	0.000000	0.000000	0.000000	0.000000	0.000000
0.333333	-54.902363	401.730779	-22.768715	-0.302883	-0.000224	-0.254115	0.000097	-0.112817	-0.000208	0.000000	0.000000	0.000000	0.000000	0.000000	0.000000	0.000000	0.000000	0.000000	0.000000	0.000000	0.000000	0.000000	0.000000	0.000000	0.000000	0.000000	0.000000
0.334000	-54.492663	401.291404	-22.576691	-0.302822	-0.000224	-0.254149	0.000097	-0.112651	-0.000208	0.000000	0.000000	0.000000	0.000000	0.000000	0.000000	0.000000	0.000000	0.000000	0.000000	0.000000	0.000000	0.000000	0.000000	0.000000	0.000000	0.000000	0.000000
0.334667	-54.072558	400.823282	-22.382142	-0.302763	-0.000223	-0.254183	0.000097	-0.112902	-0.000209	0.000000	0.000000	0.000000	0.000000	0.000000	0.000000	0.000000	0.000000	0.000000	0.000000	0.000000	0.000000	0.000000	0.000000	0.000000	0.000000	0.000000	0.000000
0.335333	-53.642150	400.326715	-22.185275	-0.302706	-0.000223	-0.254217	0.000098	-0.113550	-0.000210	0.000000	0.000000	0.000000	0.000000	0.000000	0.000000	0.000000	0.000000	0.000000	0.000000	0.000000	0.000000	0.000000	0.000000	0.000000	0.000000	0.000000	0.000000
0.336000	-53.201590	399.802028	-21.986358	-0.302650	-0.000223	-0.254252	0.000099	-0.114570	-0.000212	0.000000	0.000000	0.000000	0.000000	0.000000	0.000000	0.000000	0.000000	0.000000	0.000000	0.000000	0.000000	0.000000	0.000000	0.000000	0.000000	0.000000	0.000000
0.336667	-52.751070	399.249549	-21.785711	-0.302596	-0.000223	-0.254286	0.000100	-0.115934	-0.000214	0.000000	0.000000	0.000000	0.000000	0.000000	0.000000	0.000000	0.000000	0.000000	0.000000	0.000000	0.000000	0.000000	0.000000	0.000000	0.000000	0.000000	0.000000
0.337333	-52.290820	398.669617	-21.583668	-0.302544	-0.000223	-0.254320	0.000101	-0.117612	-0.000217	0.000000	0.000000	0.000000	0.000000	0.000000	0.000000	0.000000	0.000000	0.000000	0.000000	0.000000	0.000000	0.000000	0.000000	0.000000	0.000000	0.000000	0.000000
0.338000	-51.821116	398.062596	-21.380566	-0.302494	-0.000223	-0.254353	0.000103	-0.119566	-0.000221	0.000000	0.000000	0.000000	0.000000	0.000000	0.000000	0.000000	0.000000	0.000000	0.000000	0.000000	0.000000	0.000000	0.000000	0.000000	0.000000	0.000000	0.000000
0.338667	-51.342283	397.428898	-21.176758	-0.302444	-0.000223	-0.254386	0.000105	-0.121756	-0.000225	0.000000	0.000000	0.000000	0.000000	0.000000	0.000000	0.000000	0.000000	0.000000	0.000000	0.000000	0.000000	0.000000	0.000000	0.000000	0.000000	0.000000	0.000000
0.339333	-50.854688	396.768993	-20.972619	-0.302396	-0.000223	-0.254418	0.000107	-0.124140	-0.000229	0.000000	0.000000	0.000000	0.000000	0.000000	0.000000	0.000000	0.000000	0.000000	0.000000	0.000000	0.000000	0.000000	0.000000	0.000000	0.000000	0.000000	0.000000
0.340000	-50.358733	396.083395	-20.768544	-0.302350	-0.000223	-0.254450	0.000109	-0.126675	-0.000234	0.000000	0.000000	0.000000	0.000000	0.000000	0.000000	0.000000	0.000000	0.000000	0.000000	0.000000	0.000000	0.000000	0.000000	0.000000	0.000000	0.000000	0.000000
0.340667	-49.854844	395.372638	-20.564919	-0.302305	-0.000222	-0.254481	0.000112	-0.129321	-0.000239	0.000000	0.000000	0.000000	0.000000	0.000000	0.000000	0.000000	0.000000	0.000000	0.000000	0.000000	0.000000	0.000000	0.000000	0.000000	0.000000	0.000000	0.000000
0.341333	-49.343481	394.637254	-20.362093	-0.302261	-0.000222	-0.254510	0.000114	-0.132039	-0.000244	0.000000	0.000000	0.000000	0.000000	0.000000	0.000000	0.000000	0.000000	0.000000	0.000000	0.000000	0.000000	0.000000	0.000000	0.000000	0.000000	0.000000	0.000000
0.342000	-48.825133	393.877740	-20.160381	-0.302218	-0.000222	-0.254538	0.000116	-0.134792	-0.000249	0.000000	0.000000	0.000000	0.000000	0.000000	0.000000	0.000000	0.000000	0.000000	0.000000	0.000000	0.000000	0.000000	0.000000	0.000000	0.000000	0.000000	0.000000
0.342667	-48.300326	393.094576	-19.960076	-0.302176	-0.000222	-0.254565	0.000119	-0.137540	-0.000254	0.000000	0.000000	0.000000	0.000000	0.000000	0.000000	0.000000	0.000000	0.000000	0.000000	0.000000	0.000000	0.000000	0.000000	0.000000	0.000000	0.000000	0.000000
0.343333	-47.769622	392.288259	-19.761459	-0.302135	-0.000222	-0.254591	0.000121	-0.140248	-0.000259	0.000000	0.000000	0.000000	0.000000	0.000000	0.000000	0.000000	0.000000	0.000000	0.000000	0.000000	0.000000	0.000000	0.000000	0.000000	0.000000	0.000000	0.000000
0.344000	-47.233611	391.459276	-19.564804	-0.302095	-0.000222	-0.254615	0.000123	-0.142879	-0.000264	0.000000	0.000000	0.000000	0.000000	0.000000	0.000000	0.000000	0.000000	0.000000	0.000000	0.000000	0.000000	0.000000	0.000000	0.000000	0.000000	0.000000	0.000000
0.344667	-46.692913	390.608041	-19.370372	-0.302056	-0.000222	-0.254637	0.000125	-0.145400	-0.000269	0.000000	0.000000	0.000000	0.000000	0.000000	0.000000	0.000000	0.000000	0.000000	0.000000	0.000000	0.000000	0.000000	0.000000	0.000000	0.000000	0.000000	0.000000
